<svg width="20" height="20" viewBox="0 0 20 20" fill="none" xmlns="http://www.w3.org/2000/svg">
<path d="M3.3335 18.3335H16.6668" stroke="#181818" stroke-width="1.5" stroke-linecap="round"/>
<path d="M11.5735 3.05228L12.1915 2.43436C13.2153 1.41055 14.8752 1.41055 15.899 2.43436C16.9228 3.45816 16.9228 5.11807 15.899 6.14187L15.2811 6.75979M11.5735 3.05228C11.5735 3.05228 11.6508 4.36535 12.8094 5.52395C13.968 6.68255 15.2811 6.75979 15.2811 6.75979M11.5735 3.05228L5.89271 8.7331C5.50794 9.11788 5.31555 9.31027 5.15009 9.52239C4.95492 9.77263 4.78759 10.0434 4.65106 10.3299C4.53532 10.5727 4.44928 10.8308 4.2772 11.3471L3.54803 13.5346M15.2811 6.75979L9.60023 12.4406C9.21546 12.8254 9.02307 13.0178 8.81094 13.1832C8.56071 13.3784 8.28996 13.5457 8.00348 13.6823C7.76063 13.798 7.50251 13.8841 6.98628 14.0561L4.79878 14.7853M4.79878 14.7853L4.26406 14.9635C4.01002 15.0482 3.72993 14.9821 3.54058 14.7927C3.35123 14.6034 3.28511 14.3233 3.3698 14.0693L3.54803 13.5346M4.79878 14.7853L3.54803 13.5346" stroke="#181818" stroke-width="1.5"/>
</svg>
